<svg xmlns="http://www.w3.org/2000/svg" width="88" height="88" fill="none" viewBox="0 0 88 88">
    <g clip-path="url(#prefix__clip0)">
        <path fill="#EA6F57" fill-rule="evenodd" d="M47.627 30.42l4.256 19.876.855-.077-.508-5.657c-.235-2.6 1.703-4.92 4.304-5.156 2.602-.234 4.92 1.703 5.156 4.305l.508 5.657 1.299-.117-.362-4.023c-.234-2.6 1.703-4.92 4.305-5.155 2.6-.235 4.92 1.702 5.155 4.304l.36 4.023.616-.055-.15-1.666c-.233-2.6 1.704-4.92 4.306-5.155 2.6-.234 4.92 1.703 5.155 4.304l1.61 17.907.016.83c.844 9.385-6.144 17.754-15.53 18.6l-5.38.483c-13.82 1.243-23.14-14.839-30.581-23.956-2.297-2.815-.274-6.294.678-6.682 2.023-1.652 5.03-1.347 6.68.677l3.417 4.185-5.452-25.464c-.551-2.57 1.255-5.276 3.649-5.638 2.554-.547 5.09 1.095 5.638 3.65zM72.167 5l5.096 9.634L88 16.503l-7.588 7.823 1.54 10.789-9.784-4.8-9.785 4.8 1.54-10.789-7.587-7.823 10.736-1.869L72.168 5zM12.75 7.308c7.042 0 12.75 5.708 12.75 12.75 0 7.041-5.707 12.75-12.75 12.75C5.708 32.807 0 27.098 0 20.057c0-7.042 5.709-12.75 12.75-12.75zm40.978.748v24.003h-3.85l-.434-2.024c-.38-1.778-1.453-3.238-2.872-4.157-1.398-.905-3.131-1.29-4.872-.944-.087.014-.192.034-.314.06-1.593.34-2.966 1.373-3.865 2.738-.818 1.244-1.255 2.779-1.112 4.327h-6.684V8.056h24.003z" clip-rule="evenodd"/>
    </g>
    <defs>
        <clipPath id="prefix__clip0">
            <path fill="#fff" d="M0 0H88V88H0z"/>
        </clipPath>
    </defs>
</svg>
