<svg xmlns="http://www.w3.org/2000/svg" width="88" height="88" fill="none" viewBox="0 0 88 88">
    <path fill="#FFC774" fill-rule="evenodd" d="M25.428 56.957l.611.01c1.022.03 2.052.129 3.014.211l3.708.328c4.942.452 9.88.964 14.817 1.49l7.404.794.695.075c1.855.206 3.724.456 5.524.928l.227.062c2.396.691 3.892 2.284 3.656 5.04l-.034.297c-.099.689-.33 1.35-.67 1.951l-.122.203c-.885 1.405-2.394 2.44-4.237 2.635l-.504.04c-1.685.096-3.422-.181-5.121-.354l-2.768-.28c-2.767-.291-5.531-.61-8.301-.91v.004h-.004l-.086.849-.086.85.47.227c2.208 1.017 4.54 1.51 6.92 1.877l1.526.223c1.021.143 2.049.279 3.077.439l.433.064c7.902 1.09 13.719-2.292 18.994-7.552h.001l.015-.015.015-.015.497-.497c1.323-1.332 2.65-2.687 4.157-3.776l.204-.141c2.48-1.636 6.134-1.248 7.579.604l.145.2c.84 1.223 1.016 2.885.599 4.477l-.08.28c-.374 1.203-1.092 2.35-2.119 3.207l-1.043.861c-3.84 3.14-7.832 6.108-11.443 9.486l-.317.29c-3.493 3.111-7.39 3.988-11.977 3.901l-2.64-.033c-3.52-.028-7.042.003-10.562.034l-1.947.018c-5.84.049-11.677.067-17.497-.22l-.578-.023c-4.99-.156-9.4.93-13.583 2.904l-.578-.502C7.872 82.603 3.294 76.645 0 69.948l1.932-1.144c6.441-3.812 12.89-7.616 19.512-11.084 1.126-.59 2.531-.763 3.984-.763zm35.429-28.592l.295.004c6.275.155 11.315 5.267 11.315 11.551 0 6.383-5.198 11.557-11.61 11.557l-.295-.003c-6.277-.156-11.317-5.269-11.317-11.554l.004-.293c.156-6.248 5.293-11.262 11.608-11.262zM34.965 3.76L51.58 15.203 40.08 31.738 23.468 20.295 34.965 3.76zm49.614-.774L83.03 28.53 61.357 15.176l23.222-12.19z" clip-rule="evenodd"/>
</svg>
