<svg xmlns="http://www.w3.org/2000/svg" width="88" height="88" fill="none" viewBox="0 0 88 88">
    <path fill="#48D193" fill-rule="evenodd" d="M44 50.667c3.667 0 6.667 3 6.667 6.666C50.667 61 47.667 64 44 64s-6.667-3-6.667-6.667c0-3.666 3-6.666 6.667-6.666z" clip-rule="evenodd"/>
    <path fill="#48D193" fill-rule="evenodd" d="M20.667 47.333C22.667 47.333 24 46 24 44s-1.333-3.333-3.333-3.333S17.333 42 17.333 44s1.334 3.333 3.334 3.333zm0 26.667c2 0 3.333-1.333 3.333-3.333s-1.333-3.334-3.333-3.334-3.334 1.334-3.334 3.334S18.667 74 20.667 74zM44 70.667c7.333 0 13.333-6 13.333-13.334C57.333 50 51.333 44 44 44s-13.333 6-13.333 13.333c0 7.334 6 13.334 13.333 13.334zm23.333-23.334c2 0 3.334-1.333 3.334-3.333s-1.334-3.333-3.334-3.333S64 42 64 44s1.333 3.333 3.333 3.333zm0 26.667c2 0 3.334-1.333 3.334-3.333s-1.334-3.334-3.334-3.334S64 68.667 64 70.667 65.333 74 67.333 74zm3.334-49.333l-6 1.333L41 30.667h29.667v-6zm-10-12l-27 12.666 27-5.333v-7.333zM4 34v-.333V33v-.333s0-.334.333-.334c0-.333.334-.333.334-.333v-.333s.333 0 .333-.334L5.333 31h.334L62.333 4.333c1-.333 2.334-.333 3.334.334 1 .333 1.666 1.666 1.666 2.666v11.334l6-1.334c1-.333 2 0 2.667.667 1 .667 1.333 1.667 1.333 2.667v10h3.334C82.667 30.667 84 32 84 34v46.667c0 2-1.333 3.333-3.333 3.333H7.333C5.333 84 4 82.667 4 80.667V34z" clip-rule="evenodd"/>
</svg>
